<svg width="512" height="512" viewBox="0 0 512 512" fill="none" xmlns="http://www.w3.org/2000/svg">
  <path d="M256 0C114.6 0 0 114.6 0 256s114.6 256 256 256s256-114.6 256-256S397.4 0 256 0zM256 464c-114.7 0-208-93.31-208-208S141.3 48 256 48s208 93.31 208 208S370.7 464 256 464zM296 336h-16V248C280 234.8 269.3 224 256 224H224c-13.25 0-24 10.75-24 24s10.75 24 24 24h8v64h-16c-13.25 0-24 10.75-24 24s10.75 24 24 24h80c13.25 0 24-10.75 24-24S309.3 336 296 336zM256 144c17.67 0 32-14.33 32-32c0-17.67-14.33-32-32-32s-32 14.33-32 32C224 129.7 238.3 144 256 144z" fill="currentColor"/>
</svg>